<svg width="90" height="102" viewBox="0 0 90 102" fill="none" xmlns="http://www.w3.org/2000/svg">
<path d="M58.0985 101.926H59.332L79.4625 91.8595L79.7975 91.386V11.034L79.4625 10.558L59.332 0.5H58.0835L58.0985 101.926Z" fill="#009FF0"/>
<path d="M31.9011 101.926H30.6511L10.5371 91.8595L10.1291 91.1575L9.92212 11.4435L10.5371 10.5585L30.6506 0.5H31.9166L31.9011 101.926Z" fill="#009FF0"/>
<path d="M30.686 0.5H59.3125V101.926H30.686V0.5Z" fill="#009FF0"/>
<path d="M90 48.9345L89.3195 48.7835L79.607 47.878L79.4625 47.9495L59.314 47.144H30.686L10.537 47.9495V32.5845L10.516 32.596L10.537 32.551L30.686 27.8825H59.314L79.4625 32.551L86.8695 36.4885V33.957L90 33.615L89.676 32.983L79.7645 25.896L79.4625 25.994L59.314 19.75H30.686L10.537 25.9935V10.5585L0 22.902V33.683L0.0814991 33.624L3.1305 33.9565V36.54L0 38.215V48.9425L0.0814991 48.934L3.1305 48.979V53.4815L0.5 53.5205L0 53.473V64.2045L3.13 65.8875V68.5005L0.131001 68.832L0 68.7335V79.5125L10.537 91.859V76.425L30.686 82.6685H59.314L79.522 76.4065L79.7905 76.5245L89.5715 69.5415L90 68.846L86.8695 68.5005V65.94L86.4595 65.776L79.7645 69.385L79.522 69.891L59.314 74.533V74.5385H30.686V74.533L10.537 69.8715V54.4505L30.686 55.2535V55.273H59.314L79.4625 54.4505L79.9215 54.6615L89.336 53.851L90 53.5265L86.8695 53.4815V48.979L90 48.9345Z" fill="white"/>
<path d="M79.4624 76.4255V91.8595L89.9999 79.5135V68.8045L79.5234 76.4075L79.4624 76.4255ZM79.4624 69.906L79.5234 69.892L89.9999 64.257V53.482L79.4624 54.451V69.906ZM79.5234 32.565L79.4624 32.5515V47.9495L89.9999 48.9345V38.1645L79.5234 32.565ZM79.5234 26.054L89.9999 33.6145V22.9055L79.4624 10.558V25.993L79.5234 26.0145V26.054Z" fill="#009FF0"/>
<path d="M10.537 47.9511V32.5861L10.516 32.5976L10.537 25.9951V10.5601L0 22.9036V33.6846L0.0814991 33.6256L3.1305 33.9581V36.5416L0 38.2166V48.9441L0.0814991 48.9356L3.1305 48.9806V53.4831L0.5 53.5221L0 53.4746V64.2061L3.13 65.8891V68.5021L0.131001 68.8336L0 68.7351V79.5141L10.537 91.8606V69.8731V47.9511Z" fill="#009FF0"/>
</svg>
