<svg width="156" height="156" viewBox="0 0 156 156" fill="none" xmlns="http://www.w3.org/2000/svg">
<g clip-path="url(#clip0_409_2)">
<mask id="path-1-outside-1_409_2" maskUnits="userSpaceOnUse" x="-2" y="45.3467" width="160" height="66" fill="black">
<rect fill="white" x="-2" y="45.3467" width="160" height="66"/>
<path d="M10.7713 46.3491L0 57.2021L10.8932 67.9722L15.1125 63.7041L11.2954 63.7163L4.72509 57.1948L11.2478 50.6221L15.0601 50.6074L10.7701 46.3467L10.7713 46.3491ZM15.0613 50.6087L15.9339 51.4752L16.8029 50.6026L15.0613 50.6087ZM15.9339 51.4752L11.0187 56.4294L20.8882 56.3928L15.9339 51.4752ZM20.8882 56.3928L21.6206 57.1216L20.8735 57.8785L34.7868 57.8261L34.0129 57.0583L34.7222 56.3429L20.8882 56.3928ZM34.7222 56.3429L39.8044 56.3246L37.2621 53.8018L40.042 53.792L43.3278 57.0522L40.0664 60.3379L37.3267 60.3477L40.3784 63.3751L46.6952 57.0095L40.3309 50.6927L34.7222 56.3429ZM37.3267 60.3477L37.3072 60.3282L37.2889 60.3477H37.3267ZM37.3072 60.3282L39.8092 57.8078L34.7868 57.8261L37.3072 60.3282ZM20.8735 57.8785L11.026 57.9151L15.9766 62.8303L20.8735 57.8785ZM15.9766 62.8303L15.1125 63.7041L16.8529 63.6992L15.9766 62.8303ZM140.753 53.4337C137.688 53.4337 134.846 53.9797 132.227 55.0656C129.608 56.1503 127.34 57.6555 125.419 59.575C123.498 61.4957 121.996 63.7748 120.911 66.4122C119.823 69.0508 119.28 71.9392 119.28 75.0811C119.28 78.2255 119.821 81.1176 120.909 83.7562C121.993 86.3936 123.498 88.6714 125.419 90.5922C127.34 92.5129 129.608 94.0169 132.227 95.1016C134.847 96.1862 137.687 96.731 140.753 96.731C142.46 96.731 144.079 96.536 145.613 96.1509C147.095 95.7811 148.53 95.2434 149.89 94.5482C151.165 93.9011 152.349 93.0898 153.413 92.1351C154.394 91.256 155.263 90.2588 156 89.1662L152.568 86.7214C151.792 87.9243 150.947 88.9237 150.037 89.7196C149.164 90.489 148.184 91.1263 147.126 91.6111C146.098 92.0766 145.051 92.4057 143.984 92.5982C142.919 92.7928 141.838 92.8907 140.755 92.8907C138.115 92.8907 135.748 92.4057 133.653 91.4343C131.557 90.4654 129.786 89.1675 128.331 87.5356C126.877 85.9073 125.759 84.017 124.984 81.8635C124.204 79.6878 123.81 77.3925 123.82 75.0811C123.82 72.7168 124.209 70.4572 124.984 68.3049C125.76 66.1514 126.877 64.2586 128.331 62.6304C129.786 61.0009 131.558 59.7005 133.653 58.7304C135.749 57.7615 138.114 57.2764 140.753 57.2764C141.838 57.2764 142.925 57.4324 144.012 57.7432C145.097 58.054 146.118 58.4611 147.069 58.9644C148.02 59.469 148.862 60.0491 149.599 60.7084C150.336 61.369 150.919 62.0283 151.347 62.6877L155.009 59.9516C153.187 57.6238 150.996 55.959 148.435 54.9486C145.876 53.9407 143.314 53.4374 140.753 53.4374V53.4349V53.4337ZM53.5823 54.4818V95.6841H57.7712V76.5376H64.7546L76.0439 95.6841H81.1663L69.292 76.1317C72.7045 75.8221 75.3175 74.6863 77.1213 72.7277C78.925 70.7692 79.8257 68.3524 79.8257 65.4823C79.8257 61.7968 78.6155 59.0412 76.1914 57.2167C73.7661 55.3935 70.4572 54.4818 66.2671 54.4818H53.5823ZM88.3813 54.4818V95.6841H92.5702V76.5376H100.369C104.558 76.5376 107.865 75.615 110.29 73.7722C112.715 71.9319 113.928 69.1678 113.928 65.4823C113.928 61.7968 112.714 59.0412 110.29 57.2167C107.864 55.3935 104.558 54.4818 100.369 54.4818H88.3813ZM57.7712 58.3233H65.2202C67.0824 58.3233 68.6607 58.5086 69.9611 58.8766C71.2603 59.2459 72.3011 59.759 73.0775 60.4184C73.8526 61.0789 74.4144 61.8443 74.763 62.7181C75.1128 63.5908 75.2871 64.5121 75.2871 65.4823C75.2871 66.4914 75.1128 67.4323 74.763 68.3049C74.403 69.1919 73.8229 69.9725 73.0775 70.573C72.3011 71.2128 71.2615 71.7284 69.9611 72.1159C68.6607 72.5035 67.0824 72.6961 65.2202 72.6961H57.7712V58.3233ZM92.5702 58.3233H99.322C101.183 58.3233 102.763 58.5086 104.063 58.8766C105.362 59.2459 106.399 59.759 107.176 60.4184C107.951 61.0789 108.514 61.8443 108.864 62.7181C109.215 63.5972 109.394 64.5356 109.39 65.4823C109.39 66.4914 109.212 67.4323 108.864 68.3049C108.503 69.1921 107.922 69.9727 107.176 70.573C106.399 71.2128 105.362 71.7284 104.063 72.1159C102.763 72.5035 101.183 72.6961 99.322 72.6961H92.5702V58.3233ZM27.6291 67.7504C25.612 67.7504 23.7571 68.1111 22.0716 68.829C20.4256 69.5175 18.9392 70.5377 17.7048 71.8259C16.4711 73.124 15.494 74.6437 14.8249 76.3048C14.1265 78.0122 13.7767 79.855 13.7767 81.8342C13.7767 83.8123 14.1473 85.6562 14.8846 87.3625C15.5839 89.0167 16.6122 90.5115 17.9071 91.7561C19.2139 92.9946 20.7453 93.9721 22.4189 94.636C24.1447 95.3343 25.9984 95.6841 27.9764 95.6841C29.9189 95.692 31.8418 95.2956 33.6229 94.5202C35.4071 93.7451 36.9184 92.424 38.1603 90.5641H38.2761V95.4513C38.2761 96.926 38.0932 98.3105 37.724 99.6109C37.3795 100.864 36.7637 102.026 35.9202 103.015C35.0854 103.984 33.9897 104.752 32.632 105.315C31.2731 105.875 29.6266 106.158 27.6863 106.158C25.4755 106.158 23.4646 105.701 21.6608 104.791C19.8571 103.879 18.3946 102.668 17.2697 101.154L14.4154 104.179C16.1618 106.041 18.1033 107.418 20.2373 108.312C22.3702 109.204 24.7955 109.65 27.5096 109.65C30.5736 109.65 33.0598 109.187 34.9611 108.254C36.8623 107.323 38.3443 106.158 39.4119 104.763C40.4588 103.407 41.1937 101.837 41.5643 100.165C41.9335 98.4958 42.1188 96.9248 42.1188 95.4501V68.4475H38.2761V72.9898H38.1603C37.3839 71.9416 36.5515 71.0788 35.6582 70.3999C34.8259 69.7561 33.9171 69.2178 32.9526 68.7973C32.0753 68.4203 31.1571 68.1471 30.2165 67.9831C29.362 67.8339 28.4965 67.7552 27.6291 67.7504ZM28.0922 71.2421C29.6839 71.2421 31.1196 71.5248 32.3993 72.0867C33.6789 72.6485 34.7661 73.4054 35.6582 74.356C36.5541 75.3122 37.2473 76.4398 37.6959 77.671C38.1681 78.9674 38.405 80.3376 38.3955 81.7172C38.4321 83.3089 38.1883 84.7422 37.6642 86.0219C37.1645 87.2679 36.4002 88.3907 35.4242 89.3125C34.4532 90.2243 33.3185 90.9443 32.0799 91.4343C30.8121 91.9408 29.4586 92.1982 28.0934 92.1924C26.6577 92.1924 25.3268 91.9097 24.1057 91.349C22.9052 90.8025 21.8195 90.0328 20.9064 89.0809C19.9872 88.1193 19.2567 86.9936 18.7529 85.7623C18.2246 84.48 17.9573 83.1053 17.9668 81.7185C17.9581 80.3309 18.2253 78.9555 18.7529 77.6722C19.2575 76.4424 19.9879 75.3181 20.9064 74.3572C21.8198 73.405 22.9054 72.6346 24.1057 72.0867C25.3577 71.5185 26.7186 71.2303 28.0934 71.2421H28.0922Z"/>
</mask>
<path d="M10.7713 46.3491L0 57.2021L10.8932 67.9722L15.1125 63.7041L11.2954 63.7163L4.72509 57.1948L11.2478 50.6221L15.0601 50.6074L10.7701 46.3467L10.7713 46.3491ZM15.0613 50.6087L15.9339 51.4752L16.8029 50.6026L15.0613 50.6087ZM15.9339 51.4752L11.0187 56.4294L20.8882 56.3928L15.9339 51.4752ZM20.8882 56.3928L21.6206 57.1216L20.8735 57.8785L34.7868 57.8261L34.0129 57.0583L34.7222 56.3429L20.8882 56.3928ZM34.7222 56.3429L39.8044 56.3246L37.2621 53.8018L40.042 53.792L43.3278 57.0522L40.0664 60.3379L37.3267 60.3477L40.3784 63.3751L46.6952 57.0095L40.3309 50.6927L34.7222 56.3429ZM37.3267 60.3477L37.3072 60.3282L37.2889 60.3477H37.3267ZM37.3072 60.3282L39.8092 57.8078L34.7868 57.8261L37.3072 60.3282ZM20.8735 57.8785L11.026 57.9151L15.9766 62.8303L20.8735 57.8785ZM15.9766 62.8303L15.1125 63.7041L16.8529 63.6992L15.9766 62.8303ZM140.753 53.4337C137.688 53.4337 134.846 53.9797 132.227 55.0656C129.608 56.1503 127.34 57.6555 125.419 59.575C123.498 61.4957 121.996 63.7748 120.911 66.4122C119.823 69.0508 119.28 71.9392 119.28 75.0811C119.28 78.2255 119.821 81.1176 120.909 83.7562C121.993 86.3936 123.498 88.6714 125.419 90.5922C127.34 92.5129 129.608 94.0169 132.227 95.1016C134.847 96.1862 137.687 96.731 140.753 96.731C142.46 96.731 144.079 96.536 145.613 96.1509C147.095 95.7811 148.53 95.2434 149.89 94.5482C151.165 93.9011 152.349 93.0898 153.413 92.1351C154.394 91.256 155.263 90.2588 156 89.1662L152.568 86.7214C151.792 87.9243 150.947 88.9237 150.037 89.7196C149.164 90.489 148.184 91.1263 147.126 91.6111C146.098 92.0766 145.051 92.4057 143.984 92.5982C142.919 92.7928 141.838 92.8907 140.755 92.8907C138.115 92.8907 135.748 92.4057 133.653 91.4343C131.557 90.4654 129.786 89.1675 128.331 87.5356C126.877 85.9073 125.759 84.017 124.984 81.8635C124.204 79.6878 123.81 77.3925 123.82 75.0811C123.82 72.7168 124.209 70.4572 124.984 68.3049C125.76 66.1514 126.877 64.2586 128.331 62.6304C129.786 61.0009 131.558 59.7005 133.653 58.7304C135.749 57.7615 138.114 57.2764 140.753 57.2764C141.838 57.2764 142.925 57.4324 144.012 57.7432C145.097 58.054 146.118 58.4611 147.069 58.9644C148.02 59.469 148.862 60.0491 149.599 60.7084C150.336 61.369 150.919 62.0283 151.347 62.6877L155.009 59.9516C153.187 57.6238 150.996 55.959 148.435 54.9486C145.876 53.9407 143.314 53.4374 140.753 53.4374V53.4349V53.4337ZM53.5823 54.4818V95.6841H57.7712V76.5376H64.7546L76.0439 95.6841H81.1663L69.292 76.1317C72.7045 75.8221 75.3175 74.6863 77.1213 72.7277C78.925 70.7692 79.8257 68.3524 79.8257 65.4823C79.8257 61.7968 78.6155 59.0412 76.1914 57.2167C73.7661 55.3935 70.4572 54.4818 66.2671 54.4818H53.5823ZM88.3813 54.4818V95.6841H92.5702V76.5376H100.369C104.558 76.5376 107.865 75.615 110.29 73.7722C112.715 71.9319 113.928 69.1678 113.928 65.4823C113.928 61.7968 112.714 59.0412 110.29 57.2167C107.864 55.3935 104.558 54.4818 100.369 54.4818H88.3813ZM57.7712 58.3233H65.2202C67.0824 58.3233 68.6607 58.5086 69.9611 58.8766C71.2603 59.2459 72.3011 59.759 73.0775 60.4184C73.8526 61.0789 74.4144 61.8443 74.763 62.7181C75.1128 63.5908 75.2871 64.5121 75.2871 65.4823C75.2871 66.4914 75.1128 67.4323 74.763 68.3049C74.403 69.1919 73.8229 69.9725 73.0775 70.573C72.3011 71.2128 71.2615 71.7284 69.9611 72.1159C68.6607 72.5035 67.0824 72.6961 65.2202 72.6961H57.7712V58.3233ZM92.5702 58.3233H99.322C101.183 58.3233 102.763 58.5086 104.063 58.8766C105.362 59.2459 106.399 59.759 107.176 60.4184C107.951 61.0789 108.514 61.8443 108.864 62.7181C109.215 63.5972 109.394 64.5356 109.39 65.4823C109.39 66.4914 109.212 67.4323 108.864 68.3049C108.503 69.1921 107.922 69.9727 107.176 70.573C106.399 71.2128 105.362 71.7284 104.063 72.1159C102.763 72.5035 101.183 72.6961 99.322 72.6961H92.5702V58.3233ZM27.6291 67.7504C25.612 67.7504 23.7571 68.1111 22.0716 68.829C20.4256 69.5175 18.9392 70.5377 17.7048 71.8259C16.4711 73.124 15.494 74.6437 14.8249 76.3048C14.1265 78.0122 13.7767 79.855 13.7767 81.8342C13.7767 83.8123 14.1473 85.6562 14.8846 87.3625C15.5839 89.0167 16.6122 90.5115 17.9071 91.7561C19.2139 92.9946 20.7453 93.9721 22.4189 94.636C24.1447 95.3343 25.9984 95.6841 27.9764 95.6841C29.9189 95.692 31.8418 95.2956 33.6229 94.5202C35.4071 93.7451 36.9184 92.424 38.1603 90.5641H38.2761V95.4513C38.2761 96.926 38.0932 98.3105 37.724 99.6109C37.3795 100.864 36.7637 102.026 35.9202 103.015C35.0854 103.984 33.9897 104.752 32.632 105.315C31.2731 105.875 29.6266 106.158 27.6863 106.158C25.4755 106.158 23.4646 105.701 21.6608 104.791C19.8571 103.879 18.3946 102.668 17.2697 101.154L14.4154 104.179C16.1618 106.041 18.1033 107.418 20.2373 108.312C22.3702 109.204 24.7955 109.65 27.5096 109.65C30.5736 109.65 33.0598 109.187 34.9611 108.254C36.8623 107.323 38.3443 106.158 39.4119 104.763C40.4588 103.407 41.1937 101.837 41.5643 100.165C41.9335 98.4958 42.1188 96.9248 42.1188 95.4501V68.4475H38.2761V72.9898H38.1603C37.3839 71.9416 36.5515 71.0788 35.6582 70.3999C34.8259 69.7561 33.9171 69.2178 32.9526 68.7973C32.0753 68.4203 31.1571 68.1471 30.2165 67.9831C29.362 67.8339 28.4965 67.7552 27.6291 67.7504ZM28.0922 71.2421C29.6839 71.2421 31.1196 71.5248 32.3993 72.0867C33.6789 72.6485 34.7661 73.4054 35.6582 74.356C36.5541 75.3122 37.2473 76.4398 37.6959 77.671C38.1681 78.9674 38.405 80.3376 38.3955 81.7172C38.4321 83.3089 38.1883 84.7422 37.6642 86.0219C37.1645 87.2679 36.4002 88.3907 35.4242 89.3125C34.4532 90.2243 33.3185 90.9443 32.0799 91.4343C30.8121 91.9408 29.4586 92.1982 28.0934 92.1924C26.6577 92.1924 25.3268 91.9097 24.1057 91.349C22.9052 90.8025 21.8195 90.0328 20.9064 89.0809C19.9872 88.1193 19.2567 86.9936 18.7529 85.7623C18.2246 84.48 17.9573 83.1053 17.9668 81.7185C17.9581 80.3309 18.2253 78.9555 18.7529 77.6722C19.2575 76.4424 19.9879 75.3181 20.9064 74.3572C21.8198 73.405 22.9054 72.6346 24.1057 72.0867C25.3577 71.5185 26.7186 71.2303 28.0934 71.2421H28.0922Z" fill="#009FF0"/>
<path d="M10.7713 46.3491L11.4811 47.0535L11.9869 46.5439L11.6656 45.9017L10.7713 46.3491ZM0 57.2021L-0.709772 56.4977L-1.41555 57.2088L-0.703077 57.9132L0 57.2021ZM10.8932 67.9722L10.1901 68.6833L10.9013 69.3864L11.6043 68.6752L10.8932 67.9722ZM11.2954 63.7163L10.5909 64.426L10.8847 64.7176L11.2986 64.7163L11.2954 63.7163ZM4.72509 57.1948L4.01529 56.4904L3.31096 57.2001L4.02063 57.9045L4.72509 57.1948ZM11.2478 50.6221L11.244 49.6221L10.8298 49.6237L10.538 49.9177L11.2478 50.6221ZM15.0601 50.6074L15.0639 51.6074L17.4767 51.5982L15.7648 49.8979L15.0601 50.6074ZM10.7701 46.3467L11.4748 45.6372L9.87577 46.7941L10.7701 46.3467ZM15.0613 50.6087L15.0578 49.6087L12.6436 49.6171L14.3567 51.3182L15.0613 50.6087ZM16.8029 50.6026L17.5115 51.3082L19.2184 49.5941L16.7994 49.6026L16.8029 50.6026ZM11.0187 56.4294L10.3088 55.7251L8.60907 57.4383L11.0224 57.4294L11.0187 56.4294ZM21.6206 57.1216L22.3323 57.8242L23.032 57.1153L22.326 56.4128L21.6206 57.1216ZM34.0129 57.0583L33.3027 56.3542L32.5989 57.0641L33.3086 57.7682L34.0129 57.0583ZM39.8044 56.3246L39.808 57.3246L42.223 57.3159L40.5088 55.6148L39.8044 56.3246ZM37.2621 53.8018L37.2586 52.8018L34.8432 52.8103L36.5577 54.5116L37.2621 53.8018ZM40.042 53.792L40.7464 53.0822L40.4525 52.7906L40.0385 52.792L40.042 53.792ZM43.3278 57.0522L44.0375 57.7566L44.7421 57.0468L44.0321 56.3423L43.3278 57.0522ZM40.0664 60.3379L40.07 61.3379L40.4843 61.3364L40.7761 61.0424L40.0664 60.3379ZM40.3784 63.3751L39.6741 64.085L40.384 64.7891L41.0882 64.0794L40.3784 63.3751ZM46.6952 57.0095L47.405 57.7139L48.1093 57.0042L47.3996 56.2998L46.6952 57.0095ZM40.3309 50.6927L41.0353 49.983L40.3256 49.2786L39.6212 49.9882L40.3309 50.6927ZM37.2889 60.3477L36.5594 59.6637L34.9806 61.3477H37.2889V60.3477ZM39.8092 57.8078L40.5189 58.5123L42.2198 56.799L39.8056 56.8078L39.8092 57.8078ZM11.026 57.9151L11.0223 56.9151L8.60857 56.924L10.3215 58.6247L11.026 57.9151ZM16.8529 63.6992L16.8557 64.6992L19.2746 64.6925L17.557 62.9892L16.8529 63.6992ZM140.753 53.4337H141.753V52.4337H140.753V53.4337ZM132.227 55.0656L132.61 55.9895L132.61 55.9894L132.227 55.0656ZM125.419 59.575L124.712 58.8677L124.712 58.8679L125.419 59.575ZM120.911 66.4122L121.835 66.7935L121.836 66.7925L120.911 66.4122ZM120.909 83.7562L121.833 83.3758L121.833 83.3753L120.909 83.7562ZM132.227 95.1016L131.844 96.0255L131.845 96.0255L132.227 95.1016ZM145.613 96.1509L145.371 95.1806L145.369 95.181L145.613 96.1509ZM149.89 94.5482L149.438 93.6566L149.435 93.6578L149.89 94.5482ZM153.413 92.1351L152.745 91.3902L152.745 91.3909L153.413 92.1351ZM156 89.1662L156.829 89.7254L157.374 88.9173L156.58 88.3518L156 89.1662ZM152.568 86.7214L153.148 85.907L152.295 85.2995L151.728 86.1792L152.568 86.7214ZM150.037 89.7196L149.378 88.9667L149.375 88.9696L150.037 89.7196ZM147.126 91.6111L147.539 92.5221L147.543 92.5201L147.126 91.6111ZM143.984 92.5982L143.807 91.6142L143.805 91.6145L143.984 92.5982ZM140.755 92.8907L140.755 93.8907L140.755 93.8907L140.755 92.8907ZM133.653 91.4343L134.074 90.5271L134.073 90.5266L133.653 91.4343ZM128.331 87.5356L129.077 86.87L129.077 86.8695L128.331 87.5356ZM124.984 81.8635L124.043 82.201L124.043 82.2022L124.984 81.8635ZM123.82 75.0811L124.82 75.0855V75.0811H123.82ZM124.984 68.3049L124.043 67.9658L124.043 67.9661L124.984 68.3049ZM128.331 62.6304L127.585 61.9643L127.585 61.9643L128.331 62.6304ZM133.653 58.7304L133.233 57.8227L133.233 57.823L133.653 58.7304ZM144.012 57.7432L144.288 56.7819L144.287 56.7817L144.012 57.7432ZM147.069 58.9644L147.538 58.0811L147.537 58.0806L147.069 58.9644ZM149.599 60.7084L150.266 59.9636L150.266 59.963L149.599 60.7084ZM151.347 62.6877L150.508 63.232L151.089 64.1282L151.945 63.4888L151.347 62.6877ZM155.009 59.9516L155.608 60.7527L156.427 60.1406L155.797 59.3352L155.009 59.9516ZM148.435 54.9486L148.802 54.0184L148.802 54.0182L148.435 54.9486ZM140.753 53.4374H139.753V54.4374H140.753V53.4374ZM53.5823 54.4818V53.4818H52.5823V54.4818H53.5823ZM53.5823 95.6841H52.5823V96.6841H53.5823V95.6841ZM57.7712 95.6841V96.6841H58.7712V95.6841H57.7712ZM57.7712 76.5376V75.5376H56.7712V76.5376H57.7712ZM64.7546 76.5376L65.616 76.0296L65.3259 75.5376H64.7546V76.5376ZM76.0439 95.6841L75.1825 96.192L75.4726 96.6841H76.0439V95.6841ZM81.1663 95.6841V96.6841H82.9436L82.021 95.165L81.1663 95.6841ZM69.292 76.1317L69.2017 75.1358L67.6052 75.2806L68.4373 76.6508L69.292 76.1317ZM76.1914 57.2167L76.7927 56.4177L76.7923 56.4174L76.1914 57.2167ZM88.3813 54.4818V53.4818H87.3813V54.4818H88.3813ZM88.3813 95.6841H87.3813V96.6841H88.3813V95.6841ZM92.5702 95.6841V96.6841H93.5702V95.6841H92.5702ZM92.5702 76.5376V75.5376H91.5702V76.5376H92.5702ZM110.29 73.7722L109.685 72.9756L109.684 72.9761L110.29 73.7722ZM110.29 57.2167L110.891 56.4177L110.89 56.4174L110.29 57.2167ZM57.7712 58.3233V57.3233H56.7712V58.3233H57.7712ZM69.9611 58.8766L70.2345 57.9147L70.2335 57.9144L69.9611 58.8766ZM73.0775 60.4184L73.7261 59.6573L73.7248 59.6562L73.0775 60.4184ZM74.763 62.7181L73.8342 63.0886L73.8348 63.0902L74.763 62.7181ZM74.763 68.3049L75.6896 68.6809L75.6912 68.677L74.763 68.3049ZM73.0775 70.573L72.4501 69.7942L72.4415 69.8013L73.0775 70.573ZM57.7712 72.6961H56.7712V73.6961H57.7712V72.6961ZM92.5702 58.3233V57.3233H91.5702V58.3233H92.5702ZM104.063 58.8766L104.336 57.9147L104.335 57.9144L104.063 58.8766ZM107.176 60.4184L107.824 59.6573L107.823 59.6562L107.176 60.4184ZM108.864 62.7181L109.792 62.347L109.792 62.3465L108.864 62.7181ZM109.39 65.4823L108.39 65.4785V65.4823L109.39 65.4823ZM108.864 68.3049L109.79 68.6816L109.792 68.6758L108.864 68.3049ZM107.176 70.573L106.549 69.7937L106.54 69.8013L107.176 70.573ZM104.063 72.1159L104.349 73.0743L104.349 73.0742L104.063 72.1159ZM92.5702 72.6961H91.5702V73.6961H92.5702V72.6961ZM27.6291 67.7504L27.6346 66.7504H27.6291V67.7504ZM22.0716 68.829L22.4575 69.7515L22.4634 69.749L22.0716 68.829ZM17.7048 71.8259L16.9827 71.134L16.9799 71.137L17.7048 71.8259ZM14.8249 76.3048L15.7505 76.6833L15.7524 76.6784L14.8249 76.3048ZM14.8846 87.3625L15.8057 86.9731L15.8025 86.9658L14.8846 87.3625ZM17.9071 91.7561L17.2141 92.4771L17.2192 92.4819L17.9071 91.7561ZM22.4189 94.636L22.794 93.709L22.7876 93.7065L22.4189 94.636ZM27.9764 95.6841L27.9805 94.6841H27.9764V95.6841ZM33.6229 94.5202L33.2244 93.603L33.2237 93.6033L33.6229 94.5202ZM38.1603 90.5641V89.5641H37.6256L37.3287 90.0088L38.1603 90.5641ZM38.2761 90.5641H39.2761V89.5641H38.2761V90.5641ZM37.724 99.6109L36.762 99.3377L36.7597 99.3459L37.724 99.6109ZM35.9202 103.015L36.6778 103.668L36.681 103.664L35.9202 103.015ZM32.632 105.315L33.0134 106.239L33.0151 106.238L32.632 105.315ZM21.6608 104.791L21.2098 105.683L21.2103 105.683L21.6608 104.791ZM17.2697 101.154L18.0723 100.557L17.3609 99.6001L16.5424 100.468L17.2697 101.154ZM14.4154 104.179L13.6881 103.493L13.0424 104.177L13.686 104.863L14.4154 104.179ZM20.2373 108.312L19.8512 109.234L19.8515 109.234L20.2373 108.312ZM34.9611 108.254L34.5212 107.356L34.5208 107.356L34.9611 108.254ZM39.4119 104.763L38.6205 104.151L38.6177 104.155L39.4119 104.763ZM41.5643 100.165L42.5406 100.382L42.5407 100.381L41.5643 100.165ZM42.1188 68.4475H43.1188V67.4475H42.1188V68.4475ZM38.2761 68.4475V67.4475H37.2761V68.4475H38.2761ZM38.2761 72.9898V73.9898H39.2761V72.9898H38.2761ZM38.1603 72.9898L37.3567 73.585L37.6565 73.9898H38.1603V72.9898ZM35.6582 70.3999L35.0463 71.1909L35.0532 71.1961L35.6582 70.3999ZM32.9526 68.7973L33.3522 67.8806L33.3474 67.8785L32.9526 68.7973ZM30.2165 67.9831L30.0444 68.9682L30.0448 68.9683L30.2165 67.9831ZM35.6582 74.356L36.3879 73.6722L36.3874 73.6717L35.6582 74.356ZM37.6959 77.671L38.6356 77.3288L38.6355 77.3286L37.6959 77.671ZM38.3955 81.7172L37.3955 81.7104L37.3954 81.7253L37.3958 81.7402L38.3955 81.7172ZM37.6642 86.0219L36.7388 85.6429L36.7361 85.6496L37.6642 86.0219ZM35.4242 89.3125L36.1088 90.0414L36.1108 90.0395L35.4242 89.3125ZM32.0799 91.4343L31.712 90.5045L31.709 90.5057L32.0799 91.4343ZM28.0934 92.1924L28.0976 91.1924H28.0934L28.0934 92.1924ZM24.1057 91.349L24.5229 90.4402L24.52 90.4389L24.1057 91.349ZM20.9064 89.0809L20.1836 89.7719L20.1848 89.7732L20.9064 89.0809ZM18.7529 85.7623L19.6784 85.3836L19.6775 85.3813L18.7529 85.7623ZM17.9668 81.7185L18.9669 81.7253L18.9668 81.7122L17.9668 81.7185ZM18.7529 77.6722L19.6778 78.0524L19.6781 78.0518L18.7529 77.6722ZM20.9064 74.3572L20.1848 73.665L20.1836 73.6662L20.9064 74.3572ZM24.1057 72.0867L23.6924 71.1761L23.6904 71.177L24.1057 72.0867ZM28.0934 71.2421V72.2421L28.102 70.2421L28.0934 71.2421ZM10.0615 45.6447L-0.709772 56.4977L0.709772 57.9065L11.4811 47.0535L10.0615 45.6447ZM-0.703077 57.9132L10.1901 68.6833L11.5963 67.2611L0.703077 56.491L-0.703077 57.9132ZM11.6043 68.6752L15.8237 64.4072L14.4013 63.0011L10.182 67.2691L11.6043 68.6752ZM15.1093 62.7041L11.2922 62.7163L11.2986 64.7163L15.1157 64.7041L15.1093 62.7041ZM11.9998 63.0066L5.42956 56.485L4.02063 57.9045L10.5909 64.426L11.9998 63.0066ZM5.43489 57.8992L11.9576 51.3265L10.538 49.9177L4.01529 56.4904L5.43489 57.8992ZM11.2517 51.622L15.0639 51.6074L15.0563 49.6074L11.244 49.6221L11.2517 51.622ZM15.7648 49.8979L11.4748 45.6372L10.0654 47.0562L14.3554 51.3169L15.7648 49.8979ZM9.87577 46.7941L9.87699 46.7965L11.6656 45.9017L11.6644 45.8993L9.87577 46.7941ZM14.3567 51.3182L15.2293 52.1848L16.6386 50.7656L15.7659 49.8991L14.3567 51.3182ZM16.6425 52.1808L17.5115 51.3082L16.0943 49.8969L15.2253 50.7696L16.6425 52.1808ZM16.7994 49.6026L15.0578 49.6087L15.0648 51.6086L16.8064 51.6025L16.7994 49.6026ZM15.224 50.7709L10.3088 55.7251L11.7286 57.1337L16.6438 52.1795L15.224 50.7709ZM11.0224 57.4294L20.8919 57.3928L20.8845 55.3928L11.015 55.4294L11.0224 57.4294ZM21.5926 55.6831L16.6384 50.7655L15.2295 52.1849L20.1837 57.1026L21.5926 55.6831ZM20.1828 57.1017L20.9153 57.8305L22.326 56.4128L21.5935 55.684L20.1828 57.1017ZM20.9089 56.4191L20.1619 57.176L21.5852 58.581L22.3323 57.8242L20.9089 56.4191ZM20.8773 58.8785L34.7905 58.8261L34.783 56.8261L20.8698 56.8785L20.8773 58.8785ZM35.4911 57.1162L34.7172 56.3484L33.3086 57.7682L34.0825 58.536L35.4911 57.1162ZM34.723 57.7624L35.4323 57.0469L34.0121 55.6388L33.3027 56.3542L34.723 57.7624ZM34.7186 55.3429L20.8845 55.3928L20.8918 57.3928L34.7258 57.3429L34.7186 55.3429ZM34.7258 57.3429L39.808 57.3246L39.8008 55.3246L34.7186 55.3429L34.7258 57.3429ZM40.5088 55.6148L37.9664 53.092L36.5577 54.5116L39.1 57.0344L40.5088 55.6148ZM37.2656 54.8018L40.0455 54.792L40.0385 52.792L37.2586 52.8018L37.2656 54.8018ZM39.3377 54.5019L42.6234 57.762L44.0321 56.3423L40.7464 53.0822L39.3377 54.5019ZM42.618 56.3477L39.3567 59.6335L40.7761 61.0424L44.0375 57.7566L42.618 56.3477ZM40.0628 59.3379L37.3231 59.3477L37.3302 61.3477L40.07 61.3379L40.0628 59.3379ZM36.6224 61.0576L39.6741 64.085L41.0827 62.6651L38.0309 59.6377L36.6224 61.0576ZM41.0882 64.0794L47.405 57.7139L45.9854 56.3051L39.6686 62.6707L41.0882 64.0794ZM47.3996 56.2998L41.0353 49.983L39.6264 51.4025L45.9907 57.7193L47.3996 56.2998ZM39.6212 49.9882L34.0125 55.6384L35.4319 57.0474L41.0406 51.3972L39.6212 49.9882ZM38.0337 59.6405L38.0142 59.621L36.6001 61.0353L36.6196 61.0548L38.0337 59.6405ZM36.5776 59.6442L36.5594 59.6637L38.0184 61.0316L38.0367 61.0121L36.5776 59.6442ZM37.2889 61.3477H37.3267V59.3477H37.2889V61.3477ZM38.0168 61.0327L40.5189 58.5123L39.0996 57.1033L36.5975 59.6237L38.0168 61.0327ZM39.8056 56.8078L34.7831 56.8261L34.7904 58.8261L39.8129 58.8078L39.8056 56.8078ZM34.0823 58.5358L36.6026 61.0379L38.0117 59.6185L35.4913 57.1164L34.0823 58.5358ZM20.8698 56.8785L11.0223 56.9151L11.0297 58.915L20.8772 58.8785L20.8698 56.8785ZM10.3215 58.6247L15.272 63.5399L16.6812 62.1206L11.7306 57.2054L10.3215 58.6247ZM16.6876 63.5334L21.5846 58.5817L20.1625 57.1753L15.2656 62.1271L16.6876 63.5334ZM15.2655 62.1271L14.4014 63.001L15.8236 64.4072L16.6877 63.5334L15.2655 62.1271ZM15.1153 64.7041L16.8557 64.6992L16.8501 62.6992L15.1097 62.7041L15.1153 64.7041ZM17.557 62.9892L16.6807 62.1202L15.2725 63.5403L16.1487 64.4093L17.557 62.9892ZM140.753 52.4337C137.567 52.4337 134.594 53.0019 131.844 54.1419L132.61 55.9894C135.099 54.9575 137.81 54.4337 140.753 54.4337V52.4337ZM131.844 54.1417C129.109 55.2747 126.729 56.8519 124.712 58.8677L126.126 60.2823C127.95 58.459 130.107 57.0259 132.61 55.9895L131.844 54.1417ZM124.712 58.8679C122.693 60.8867 121.119 63.2784 119.986 66.0318L121.836 66.7925C122.873 64.2712 124.304 62.1048 126.126 60.2821L124.712 58.8679ZM119.987 66.0309C118.843 68.8024 118.28 71.822 118.28 75.0811H120.28C120.28 72.0564 120.802 69.2992 121.835 66.7935L119.987 66.0309ZM118.28 75.0811C118.28 78.3423 118.842 81.3655 119.984 84.1372L121.833 83.3753C120.801 80.8698 120.28 78.1088 120.28 75.0811H118.28ZM119.984 84.1366C121.116 86.8906 122.694 89.2809 124.712 91.2993L126.126 89.8851C124.303 88.0619 122.87 85.8965 121.833 83.3758L119.984 84.1366ZM124.712 91.2993C126.729 93.3166 129.109 94.8925 131.844 96.0255L132.61 94.1776C130.107 93.1412 127.95 91.7093 126.126 89.8851L124.712 91.2993ZM131.845 96.0255C134.595 97.1641 137.566 97.731 140.753 97.731V95.731C137.808 95.731 135.1 95.2084 132.61 94.1776L131.845 96.0255ZM140.753 97.731C142.536 97.731 144.238 97.5272 145.856 97.1208L145.369 95.181C143.921 95.5449 142.383 95.731 140.753 95.731V97.731ZM145.855 97.1212C147.411 96.733 148.917 96.1685 150.345 95.4387L149.435 93.6578C148.143 94.3184 146.779 94.8293 145.371 95.1806L145.855 97.1212ZM150.343 95.4399C151.695 94.7531 152.952 93.8923 154.081 92.8793L152.745 91.3909C151.746 92.2873 150.634 93.049 149.438 93.6566L150.343 95.4399ZM154.08 92.88C155.123 91.9458 156.046 90.8862 156.829 89.7254L155.171 88.6071C154.48 89.6313 153.666 90.5661 152.745 91.3902L154.08 92.88ZM156.58 88.3518L153.148 85.907L151.988 87.5359L155.42 89.9807L156.58 88.3518ZM151.728 86.1792C150.993 87.3172 150.208 88.242 149.379 88.9667L150.695 90.4724C151.687 89.6055 152.59 88.5314 153.408 87.2637L151.728 86.1792ZM149.375 88.9696C148.576 89.6744 147.678 90.2581 146.71 90.702L147.543 92.5201C148.689 91.9946 149.752 91.3037 150.698 90.4695L149.375 88.9696ZM146.714 90.7C145.757 91.1331 144.789 91.4368 143.807 91.6142L144.162 93.5823C145.313 93.3745 146.438 93.0201 147.539 92.5221L146.714 90.7ZM143.805 91.6145C142.798 91.7982 141.778 91.8907 140.755 91.8907L140.755 93.8907C141.898 93.8907 143.039 93.7873 144.164 93.582L143.805 91.6145ZM140.755 91.8907C138.239 91.8907 136.019 91.4291 134.074 90.5271L133.232 92.3416C135.477 93.3823 137.99 93.8907 140.755 93.8907V91.8907ZM134.073 90.5266C132.094 89.612 130.436 88.3942 129.077 86.87L127.584 88.2011C129.136 89.9407 131.02 91.3188 133.233 92.3421L134.073 90.5266ZM129.077 86.8695C127.712 85.3408 126.658 83.5628 125.925 81.5248L124.043 82.2022C124.86 84.4712 126.042 86.4738 127.585 88.2016L129.077 86.8695ZM125.925 81.526C125.185 79.4599 124.811 77.2803 124.82 75.0855L122.82 75.0768C122.81 77.5046 123.223 79.9156 124.043 82.201L125.925 81.526ZM124.82 75.0811C124.82 72.8287 125.19 70.684 125.925 68.6437L124.043 67.9661C123.228 70.2304 122.82 72.6049 122.82 75.0811H124.82ZM125.925 68.644C126.66 66.605 127.712 64.8246 129.077 63.2965L127.585 61.9643C126.041 63.6927 124.861 65.6977 124.043 67.9658L125.925 68.644ZM129.077 63.2965C130.436 61.7741 132.096 60.5536 134.073 59.6378L133.233 57.823C131.02 58.8475 129.136 60.2278 127.585 61.9643L129.077 63.2965ZM134.073 59.6381C136.02 58.738 138.238 58.2764 140.753 58.2764V56.2764C137.989 56.2764 135.478 56.785 133.233 57.8227L134.073 59.6381ZM140.753 58.2764C141.741 58.2764 142.736 58.4183 143.738 58.7047L144.287 56.7817C143.115 56.4466 141.935 56.2764 140.753 56.2764V58.2764ZM143.737 58.7045C144.759 58.9974 145.715 59.3792 146.601 59.8482L147.537 58.0806C146.521 57.5429 145.435 57.1106 144.288 56.7819L143.737 58.7045ZM146.6 59.8477C147.486 60.3179 148.261 60.853 148.933 61.4539L150.266 59.963C149.463 59.2452 148.553 58.62 147.538 58.0811L146.6 59.8477ZM148.932 61.4533C149.62 62.0696 150.139 62.6633 150.508 63.232L152.186 62.1434C151.699 61.3934 151.053 60.6684 150.266 59.9636L148.932 61.4533ZM151.945 63.4888L155.608 60.7527L154.411 59.1505L150.748 61.8866L151.945 63.4888ZM155.797 59.3352C153.873 56.8773 151.54 55.0986 148.802 54.0184L148.068 55.8788C150.452 56.8193 152.502 58.3703 154.222 60.568L155.797 59.3352ZM148.802 54.0182C146.134 52.9676 143.448 52.4374 140.753 52.4374V54.4374C143.18 54.4374 145.618 54.9138 148.069 55.8791L148.802 54.0182ZM141.753 53.4374V53.4349H139.753V53.4374H141.753ZM141.753 53.4349V53.4337H139.753V53.4349H141.753ZM52.5823 54.4818V95.6841H54.5823V54.4818H52.5823ZM53.5823 96.6841H57.7712V94.6841H53.5823V96.6841ZM58.7712 95.6841V76.5376H56.7712V95.6841H58.7712ZM57.7712 77.5376H64.7546V75.5376H57.7712V77.5376ZM63.8932 77.0455L75.1825 96.192L76.9053 95.1762L65.616 76.0296L63.8932 77.0455ZM76.0439 96.6841H81.1663V94.6841H76.0439V96.6841ZM82.021 95.165L70.1468 75.6126L68.4373 76.6508L80.3116 96.2032L82.021 95.165ZM69.3824 77.1276C72.9689 76.8023 75.8411 75.5939 77.8569 73.4052L76.3857 72.0503C74.7939 73.7786 72.4402 74.842 69.2017 75.1358L69.3824 77.1276ZM77.8569 73.4052C79.8449 71.2465 80.8257 68.5815 80.8257 65.4823H78.8257C78.8257 68.1234 78.0051 70.2919 76.3857 72.0503L77.8569 73.4052ZM80.8257 65.4823C80.8257 61.5586 79.5229 58.4726 76.7927 56.4177L75.59 58.0157C77.708 59.6098 78.8257 62.0349 78.8257 65.4823H80.8257ZM76.7923 56.4174C74.1385 54.4224 70.5928 53.4818 66.2671 53.4818V55.4818C70.3215 55.4818 73.3936 56.3645 75.5905 58.016L76.7923 56.4174ZM66.2671 53.4818H53.5823V55.4818H66.2671V53.4818ZM87.3813 54.4818V95.6841H89.3813V54.4818H87.3813ZM88.3813 96.6841H92.5702V94.6841H88.3813V96.6841ZM93.5702 95.6841V76.5376H91.5702V95.6841H93.5702ZM92.5702 77.5376H100.369V75.5376H92.5702V77.5376ZM100.369 77.5376C104.696 77.5376 108.242 76.585 110.895 74.5683L109.684 72.9761C107.489 74.6449 104.42 75.5376 100.369 75.5376V77.5376ZM110.894 74.5688C113.622 72.4989 114.928 69.4068 114.928 65.4823H112.928C112.928 68.9288 111.808 71.3649 109.685 72.9756L110.894 74.5688ZM114.928 65.4823C114.928 61.5577 113.621 58.4721 110.891 56.4177L109.688 58.0157C111.807 59.6102 112.928 62.0358 112.928 65.4823H114.928ZM110.89 56.4174C108.237 54.4225 104.694 53.4818 100.369 53.4818V55.4818C104.422 55.4818 107.492 56.3644 109.689 58.016L110.89 56.4174ZM100.369 53.4818H88.3813V55.4818H100.369V53.4818ZM57.7712 59.3233H65.2202V57.3233H57.7712V59.3233ZM65.2202 59.3233C67.0216 59.3233 68.5027 59.5032 69.6888 59.8388L70.2335 57.9144C68.8187 57.514 67.1432 57.3233 65.2202 57.3233V59.3233ZM69.6877 59.8385C70.8937 60.1813 71.7931 60.6395 72.4301 61.1806L73.7248 59.6562C72.8092 58.8785 71.6269 58.3105 70.2345 57.9147L69.6877 59.8385ZM72.4288 61.1795C73.0913 61.744 73.551 62.3788 73.8342 63.0886L75.6918 62.3477C75.2778 61.3098 74.6139 60.4139 73.7261 59.6573L72.4288 61.1795ZM73.8348 63.0902C74.1355 63.8403 74.2871 64.635 74.2871 65.4823H76.2871C76.2871 64.3893 76.0901 63.3412 75.6912 62.3461L73.8348 63.0902ZM74.2871 65.4823C74.2871 66.3738 74.1336 67.1874 73.8348 67.9328L75.6912 68.677C76.092 67.6772 76.2871 66.609 76.2871 65.4823H74.2871ZM73.8364 67.9289C73.5404 68.6584 73.0633 69.3004 72.4501 69.7942L73.7048 71.3518C74.5826 70.6446 75.2657 69.7254 75.6896 68.6809L73.8364 67.9289ZM72.4415 69.8013C71.7971 70.3324 70.8892 70.7959 69.6755 71.1576L70.2467 73.0743C71.6338 72.6609 72.8052 72.0933 73.7135 71.3447L72.4415 69.8013ZM69.6755 71.1576C68.4953 71.5093 67.0194 71.6961 65.2202 71.6961V73.6961C67.1455 73.6961 68.8261 73.4977 70.2467 73.0743L69.6755 71.1576ZM65.2202 71.6961H57.7712V73.6961H65.2202V71.6961ZM58.7712 72.6961V58.3233H56.7712V72.6961H58.7712ZM92.5702 59.3233H99.322V57.3233H92.5702V59.3233ZM99.322 59.3233C101.122 59.3233 102.605 59.5032 103.791 59.8388L104.335 57.9144C102.921 57.514 101.244 57.3233 99.322 57.3233V59.3233ZM103.79 59.8385C104.994 60.181 105.891 60.639 106.528 61.1806L107.823 59.6562C106.908 58.8791 105.73 58.3108 104.336 57.9147L103.79 59.8385ZM106.527 61.1795C107.19 61.7444 107.651 62.3797 107.935 63.0898L109.792 62.3465C109.377 61.3089 108.712 60.4134 107.824 59.6573L106.527 61.1795ZM107.935 63.0893C108.239 63.8491 108.393 64.6603 108.39 65.4785L110.39 65.486C110.394 64.411 110.191 63.3453 109.792 62.347L107.935 63.0893ZM108.39 65.4823C108.39 66.3712 108.234 67.1855 107.935 67.934L109.792 68.6758C110.19 67.679 110.39 66.6116 110.39 65.4823L108.39 65.4823ZM107.937 67.9282C107.641 68.658 107.163 69.3 106.549 69.7938L107.802 71.3522C108.681 70.6454 109.365 69.7262 109.79 68.6816L107.937 67.9282ZM106.54 69.8013C105.895 70.3328 104.989 70.7961 103.777 71.1577L104.349 73.0742C105.735 72.6606 106.904 72.0929 107.812 71.3447L106.54 69.8013ZM103.777 71.1576C102.597 71.5093 101.12 71.6961 99.322 71.6961V73.6961C101.246 73.6961 102.928 73.4977 104.349 73.0743L103.777 71.1576ZM99.322 71.6961H92.5702V73.6961H99.322V71.6961ZM93.5702 72.6961V58.3233H91.5702V72.6961H93.5702ZM27.6291 66.7504C25.4906 66.7504 23.5008 67.1334 21.6797 67.9089L22.4634 69.749C24.0134 69.0889 25.7334 68.7504 27.6291 68.7504V66.7504ZM21.6856 67.9064C19.913 68.648 18.3121 69.7466 16.9827 71.134L18.4268 72.5177C19.5662 71.3287 20.9382 70.387 22.4575 69.7515L21.6856 67.9064ZM16.9799 71.137C15.6594 72.5265 14.6135 74.1531 13.8973 75.9311L15.7524 76.6784C16.3745 75.1342 17.2828 73.7215 18.4297 72.5147L16.9799 71.137ZM13.8993 75.9262C13.1484 77.7622 12.7767 79.7345 12.7767 81.8342H14.7767C14.7767 79.9755 15.1047 78.2623 15.7505 76.6833L13.8993 75.9262ZM12.7767 81.8342C12.7767 83.9404 13.172 85.9202 13.9666 87.7592L15.8025 86.9658C15.1225 85.3922 14.7767 83.6842 14.7767 81.8342H12.7767ZM13.9635 87.7519C14.7156 89.531 15.8216 91.1386 17.2141 92.4771L18.6001 91.0351C17.4029 89.8845 16.4522 88.5025 15.8057 86.9731L13.9635 87.7519ZM17.2192 92.4819C18.6185 93.808 20.2582 94.8547 22.0502 95.5655L22.7876 93.7065C21.2324 93.0895 19.8094 92.1812 18.595 91.0303L17.2192 92.4819ZM22.0438 95.563C23.896 96.3125 25.8778 96.6841 27.9764 96.6841V94.6841C26.1189 94.6841 24.3934 94.3562 22.794 93.709L22.0438 95.563ZM27.9724 96.6841C30.0536 96.6925 32.1138 96.2679 34.022 95.4371L33.2237 93.6033C31.5698 94.3234 29.7842 94.6914 27.9805 94.6841L27.9724 96.6841ZM34.0213 95.4374C36.0081 94.5743 37.6605 93.1133 38.9919 91.1195L37.3287 90.0088C36.1762 91.7346 34.8062 92.9159 33.2244 93.603L34.0213 95.4374ZM38.1603 91.5641H38.2761V89.5641H38.1603V91.5641ZM37.2761 90.5641V95.4513H39.2761V90.5641H37.2761ZM37.2761 95.4513C37.2761 96.8427 37.1037 98.1345 36.762 99.3378L38.6859 99.8841C39.0828 98.4865 39.2761 97.0094 39.2761 95.4513H37.2761ZM36.7597 99.3459C36.4541 100.458 35.9078 101.489 35.1594 102.366L36.681 103.664C37.6196 102.564 38.3049 101.27 38.6882 99.876L36.7597 99.3459ZM35.1626 102.362C34.4434 103.197 33.483 103.879 32.2489 104.391L33.0151 106.238C34.4964 105.624 35.7273 104.771 36.6778 103.668L35.1626 102.362ZM32.2507 104.39C31.0437 104.888 29.5341 105.158 27.6863 105.158V107.158C29.7191 107.158 31.5025 106.862 33.0134 106.239L32.2507 104.39ZM27.6863 105.158C25.6174 105.158 23.7629 104.731 22.1114 103.898L21.2103 105.683C23.1663 106.671 25.3337 107.158 27.6863 107.158V105.158ZM22.1119 103.898C20.4367 103.051 19.0981 101.938 18.0723 100.557L16.4671 101.75C17.6911 103.397 19.2775 104.707 21.2098 105.683L22.1119 103.898ZM16.5424 100.468L13.6881 103.493L15.1427 104.865L17.997 101.84L16.5424 100.468ZM13.686 104.863C15.519 106.817 17.5746 108.281 19.8512 109.234L20.6235 107.389C18.632 106.555 16.8047 105.265 15.1448 103.495L13.686 104.863ZM19.8515 109.234C22.1259 110.186 24.6858 110.65 27.5096 110.65V108.65C24.9051 108.65 22.6144 108.222 20.6232 107.389L19.8515 109.234ZM27.5096 110.65C30.6618 110.65 33.3151 110.175 35.4014 109.152L34.5208 107.356C32.8046 108.198 30.4853 108.65 27.5096 108.65V110.65ZM35.4009 109.152C37.4141 108.166 39.0277 106.911 40.2062 105.37L38.6177 104.155C37.6609 105.406 36.3106 106.48 34.5212 107.356L35.4009 109.152ZM40.2034 105.374C41.3401 103.902 42.1381 102.197 42.5406 100.382L40.5879 99.9491C40.2492 101.477 39.5774 102.912 38.6205 104.151L40.2034 105.374ZM42.5407 100.381C42.9231 98.6521 43.1188 97.0082 43.1188 95.4501H41.1188C41.1188 96.8415 40.9439 98.3394 40.5878 99.9495L42.5407 100.381ZM43.1188 95.4501V68.4475H41.1188V95.4501H43.1188ZM42.1188 67.4475H38.2761V69.4475H42.1188V67.4475ZM37.2761 68.4475V72.9898H39.2761V68.4475H37.2761ZM38.2761 71.9898H38.1603V73.9898H38.2761V71.9898ZM38.9639 72.3946C38.1406 71.2831 37.2435 70.3487 36.2632 69.6037L35.0532 71.1961C35.8595 71.8089 36.6273 72.6002 37.3567 73.585L38.9639 72.3946ZM36.2701 69.609C35.3725 68.9146 34.3924 68.3341 33.3522 67.8806L32.5529 69.714C33.4418 70.1015 34.2793 70.5976 35.0463 71.1909L36.2701 69.609ZM33.3474 67.8785C32.3986 67.4708 31.4055 67.1753 30.3881 66.998L30.0448 68.9683C30.9087 69.1188 31.7521 69.3698 32.5577 69.716L33.3474 67.8785ZM30.3886 66.9981C29.48 66.8393 28.5588 66.7555 27.6346 66.7504L27.6235 68.7504C28.4342 68.7548 29.244 68.8284 30.0444 68.9682L30.3886 66.9981ZM28.0922 72.2421C29.5638 72.2421 30.86 72.503 31.9972 73.0023L32.8013 71.171C31.3791 70.5467 29.804 70.2421 28.0922 70.2421V72.2421ZM31.9972 73.0023C33.1625 73.5139 34.1358 74.1951 34.929 75.0403L36.3874 73.6717C35.3963 72.6157 34.1954 71.7831 32.8013 71.171L31.9972 73.0023ZM34.9285 75.0397C35.7322 75.8975 36.3539 76.909 36.7564 78.0134L38.6355 77.3286C38.1407 75.9707 37.3761 74.7269 36.3879 73.6722L34.9285 75.0397ZM36.7563 78.0132C37.1877 79.1977 37.4042 80.4498 37.3955 81.7104L39.3955 81.7241C39.4058 80.2255 39.1484 78.737 38.6356 77.3288L36.7563 78.0132ZM37.3958 81.7402C37.4296 83.2147 37.2035 84.5083 36.7388 85.6429L38.5897 86.4008C39.1732 84.976 39.4345 83.4031 39.3952 81.6943L37.3958 81.7402ZM36.7361 85.6496C36.2903 86.7614 35.6084 87.763 34.7376 88.5855L36.1108 90.0395C37.1921 89.0183 38.0388 87.7745 38.5924 86.3941L36.7361 85.6496ZM34.7396 88.5835C33.8606 89.4091 32.8333 90.0608 31.712 90.5045L32.4478 92.3642C33.8037 91.8278 35.0459 91.0396 36.1088 90.0414L34.7396 88.5835ZM31.709 90.5057C30.5605 90.9645 29.3344 91.1976 28.0976 91.1924L28.0892 93.1924C29.5829 93.1987 31.0638 92.9171 32.4509 92.363L31.709 90.5057ZM28.0934 91.1924C26.7927 91.1924 25.6052 90.9371 24.5229 90.4402L23.6884 92.2578C25.0485 92.8822 26.5228 93.1924 28.0934 93.1924L28.0934 91.1924ZM24.52 90.4389C23.4349 89.9449 22.4535 89.2491 21.6281 88.3887L20.1848 89.7732C21.1856 90.8165 22.3755 91.6601 23.6913 92.2591L24.52 90.4389ZM21.6293 88.3899C20.7965 87.5188 20.1348 86.499 19.6784 85.3836L17.8274 86.1409C18.3785 87.4881 19.1778 88.7198 20.1836 89.7719L21.6293 88.3899ZM19.6775 85.3813C19.1998 84.222 18.9582 82.9791 18.9668 81.7253L16.9668 81.7116C16.9564 83.2314 17.2493 84.738 17.8283 86.1432L19.6775 85.3813ZM18.9668 81.7122C18.9589 80.4572 19.2006 79.2132 19.6778 78.0524L17.828 77.292C17.25 78.6979 16.9573 80.2047 16.9668 81.7247L18.9668 81.7122ZM19.6781 78.0518C20.1352 76.9376 20.797 75.9188 21.6293 75.0482L20.1836 73.6662C19.1788 74.7173 18.3797 75.9473 17.8277 77.2926L19.6781 78.0518ZM21.6281 75.0494C22.454 74.1884 23.4356 73.4918 24.5209 72.9964L23.6904 71.177C22.3751 71.7773 21.1856 72.6216 20.1848 73.665L21.6281 75.0494ZM24.5189 72.9973C25.6385 72.4892 26.8554 72.2315 28.0848 72.2421L28.102 70.2421C26.5817 70.2291 25.0769 70.5478 23.6924 71.1761L24.5189 72.9973ZM28.0934 70.2421H28.0922V72.2421H28.0934V70.2421Z" fill="#009FF0" mask="url(#path-1-outside-1_409_2)"/>
</g>
<defs>
<clipPath id="clip0_409_2">
<rect width="156" height="156" fill="white"/>
</clipPath>
</defs>
</svg>
