<svg width="800" height="800" viewBox="0 0 800 800" fill="none" xmlns="http://www.w3.org/2000/svg">
<g clip-path="url(#clip0_411_42)">
<path fill-rule="evenodd" clip-rule="evenodd" d="M182.064 134.669C172.964 134.501 166.525 135.656 159.723 137.149V138.384H160.967C165.315 147.303 172.981 153.046 178.345 160.73C182.469 169.421 186.606 178.099 190.743 186.777C191.164 186.364 191.582 185.955 191.987 185.542C199.682 180.132 203.191 171.47 203.157 158.246C200.07 154.999 199.611 150.942 196.946 147.075C193.412 141.918 186.538 139.004 182.064 134.669ZM782.622 771.231C788.479 775.528 792.405 782.191 800 784.889V783.645C796.002 778.577 794.986 771.581 791.317 766.268C785.954 760.904 780.547 755.519 775.184 750.134C759.404 729.197 739.395 710.82 718.108 695.546C701.152 683.355 663.149 666.909 656.065 647.161C655.66 646.74 655.238 646.322 654.816 645.901C666.847 644.551 680.944 640.199 692.047 637.218C710.703 632.217 727.381 633.516 746.635 628.535C755.335 626.043 764.013 623.555 772.696 621.097V616.117C762.959 606.123 756.018 592.898 745.408 583.853C717.61 560.205 687.295 536.556 656.06 516.855C638.754 505.916 617.337 498.819 598.98 489.551C592.807 486.439 581.969 484.815 577.883 479.624C568.256 467.328 562.998 451.746 555.559 437.43C539.99 407.435 524.679 374.678 510.877 343.119C501.477 321.604 495.325 300.385 483.589 281.076C427.247 188.443 366.587 132.527 272.647 77.5682C252.643 65.8832 228.581 61.2699 203.157 55.2397C189.516 54.4175 175.849 53.5783 162.207 52.756C153.879 49.2771 145.217 39.089 137.395 34.1426C106.266 14.4834 26.427 -28.2886 3.38591 27.9438C-11.1708 63.429 25.1282 98.0581 38.1205 116.047C47.2416 128.66 58.9014 142.808 65.4291 156.989C69.7093 166.313 70.4388 175.67 74.1286 185.533C83.1443 209.84 90.9793 236.28 102.643 258.747C108.551 270.108 115.058 282.088 122.513 292.246C127.089 298.483 134.907 301.228 136.134 310.86C128.489 321.583 128.05 338.223 123.753 351.806C104.355 412.959 111.672 488.956 139.887 534.22C148.532 548.106 168.924 577.916 196.946 566.475C221.459 556.49 215.993 525.538 223.006 498.233C224.583 492.03 223.622 487.48 226.725 483.343V484.579C234.181 499.469 241.628 514.359 249.067 529.244C265.605 555.866 294.942 583.706 319.805 602.466C332.679 612.199 342.829 629.033 359.507 634.73V633.469H358.263C355.016 628.455 349.964 626.351 345.865 622.315C336.15 612.789 325.35 600.957 317.313 590.048C294.693 559.353 274.718 525.753 256.518 490.786C247.818 474.083 240.262 455.659 232.928 438.67C230.107 432.112 230.141 422.207 224.246 418.812C216.217 431.26 204.397 441.339 198.185 456.039C188.259 479.544 186.981 508.206 183.3 537.931C181.124 538.715 182.09 538.18 180.808 539.167C163.518 535.009 157.45 517.213 151.032 501.948C134.793 463.355 131.778 401.202 146.069 356.769C149.767 345.278 166.5 309.067 159.711 298.449C156.48 287.848 145.837 281.729 139.878 273.629C132.474 263.618 125.111 250.448 119.992 238.881C106.717 208.79 100.509 175.008 86.5136 144.583C79.8172 130.047 68.5032 115.322 59.2092 102.389C48.92 88.0683 37.3952 77.526 29.4295 60.1946C26.5915 54.0421 22.733 44.1957 26.9415 37.8661C28.2698 33.5944 30.1674 31.8149 34.397 30.4191C41.6037 24.8697 61.6297 32.2661 69.1316 35.3824C89.0184 43.6433 105.641 51.5162 122.496 62.6784C130.58 68.0422 138.765 78.4242 148.536 81.296H159.706C177.19 85.3062 196.76 82.5484 213.067 87.5032C241.915 96.2702 267.764 109.908 291.24 124.734C362.754 169.885 421.234 234.175 461.236 310.86C467.671 323.207 470.462 334.989 476.121 348.091C487.553 374.501 501.971 401.671 513.348 427.503C524.696 453.26 535.761 479.266 551.806 500.713C560.24 511.98 592.836 518.027 607.659 524.294C618.041 528.675 635.048 533.255 644.869 539.167C663.668 550.506 681.855 563.992 699.473 576.406C708.278 582.618 735.355 596.221 736.688 607.413C693.055 606.258 659.721 610.31 631.223 622.32C623.122 625.723 610.214 625.824 608.882 635.957C613.335 640.621 614.039 647.604 617.581 653.335C624.366 664.349 635.853 679.096 646.113 686.847C657.317 695.302 668.859 704.347 680.852 711.663C702.21 724.693 726.061 732.128 746.614 745.171C758.776 752.871 770.806 762.548 782.622 771.231Z" fill="#009FF0" stroke="#009FF0" stroke-width="8"/>
</g>
<defs>
<clipPath id="clip0_411_42">
<rect width="800" height="800" fill="white"/>
</clipPath>
</defs>
</svg>
