<!DOCTYPE svg PUBLIC "-//W3C//DTD SVG 1.1//EN" "http://www.w3.org/Graphics/SVG/1.1/DTD/svg11.dtd">
<!-- Uploaded to: SVG Repo, www.svgrepo.com, Transformed by: SVG Repo Mixer Tools -->
<svg width="800px" height="800px" viewBox="0 0 24 24" id="_24x24_On_Light_Pattern" data-name="24x24/On Light/Pattern" xmlns="http://www.w3.org/2000/svg" fill="#000000">
<g id="SVGRepo_bgCarrier" stroke-width="0"/>
<g id="SVGRepo_tracerCarrier" stroke-linecap="round" stroke-linejoin="round"/>
<g id="SVGRepo_iconCarrier"> <rect id="view-box" width="24" height="24" fill="#00abf0" opacity="0"/> <path id="Shape" d="M12,14.75a2.75,2.75,0,1,1,2.75,2.75A2.754,2.754,0,0,1,12,14.75Zm1.5,0a1.25,1.25,0,1,0,1.25-1.25A1.251,1.251,0,0,0,13.5,14.75ZM0,14.75A2.75,2.75,0,1,1,2.75,17.5,2.754,2.754,0,0,1,0,14.75Zm1.5,0A1.25,1.25,0,1,0,2.75,13.5,1.251,1.251,0,0,0,1.5,14.75Zm4.5-6a2.75,2.75,0,1,1,2.75,2.75A2.754,2.754,0,0,1,6,8.751Zm1.5,0A1.25,1.25,0,1,0,8.751,7.5,1.251,1.251,0,0,0,7.5,8.751Zm4.5-6A2.75,2.75,0,1,1,14.75,5.5,2.754,2.754,0,0,1,12,2.75Zm1.5,0A1.25,1.25,0,1,0,14.75,1.5,1.251,1.251,0,0,0,13.5,2.75ZM0,2.75A2.75,2.75,0,1,1,2.75,5.5,2.754,2.754,0,0,1,0,2.75Zm1.5,0A1.25,1.25,0,1,0,2.75,1.5,1.251,1.251,0,0,0,1.5,2.75Z" transform="translate(3.25 3.25)" fill="#00abf0"/> </g>
</svg>